<?xml version="1.0" encoding="utf-8"?>
<!-- Generator: Adobe Illustrator 27.4.0, SVG Export Plug-In . SVG Version: 6.00 Build 0)  -->
<svg version="1.1" id="Layer_1" xmlns="http://www.w3.org/2000/svg" xmlns:xlink="http://www.w3.org/1999/xlink" x="0px" y="0px"
	 viewBox="0 0 200 200" style="enable-background:new 0 0 200 200;" xml:space="preserve">
<style type="text/css">
	.st0{fill:#FFFFFF;}
</style>
<g id="Layer_1_00000131326608903498770110000013324477727339670410_">
</g>
<g id="Layer_2_00000018216227908003781910000002481498385901101190_">
</g>
<g id="Layer_3">
</g>
<g id="Layer_5">
</g>
<g id="Layer_6">
</g>
<g id="Layer_7">
</g>
<g id="Layer_8">
</g>
<path d="M161.6,89.6v2c0-0.4-0.1-0.8-0.1-1.3c-0.5,0.4-1,0.6-1.4,0.9c-5.6,3.7-11.1,7.4-16.7,11.1l0.1-2.1c5.5-3.7,11-7.3,16.4-10.9
	c0.4-0.3,0.9-0.5,1.4-0.9C161.5,88.8,161.6,89.2,161.6,89.6z"/>
<path d="M161.6,133.2v2c0,4.3-2.5,6.8-6.8,6.8H66.2l2.1-7.8l8.3-31c9.5,6.3,19,12.7,28.5,18.9c1.3,0.9,2.5,1.4,3.7,1.6
	c1.5,0.2,3-0.4,4.8-1.6c9.9-6.6,19.9-13.2,29.8-19.8l-0.4,8.5l-1.2,29.2h13C159.1,140,161.6,137.5,161.6,133.2z"/>
<g id="Layer_4">
	<g id="kSnGQK.tif_00000056395959429654798970000017239150859367978929_">
		<g>
			<path d="M161.3,88.4c-0.5,0.4-1,0.6-1.4,0.9c-5.4,3.6-10.9,7.2-16.4,10.9l-0.1,2.1c5.6-3.7,11.1-7.4,16.7-11.1
				c0.4-0.3,0.9-0.5,1.4-0.9c0,0.5,0.1,0.9,0.1,1.3v-2C161.6,89.2,161.5,88.8,161.3,88.4z M108.8,123.7c1.2,0.8,2.4,1.6,3.6,2.4
				c2.9,1.9,4.9,1.9,7.8,0c7.6-5.1,15.3-10.2,22.9-15.3l0.4-8.5c-9.9,6.6-19.9,13.2-29.8,19.8C111.8,123.3,110.3,123.8,108.8,123.7z
				 M68.3,97.7L68.3,97.7c-0.9-0.6-1.9-1.2-2.8-1.9c-2.8-1.8-5.5-3.6-8.4-5.5C57,90.7,57,91,57,91.2v44.6c0,3.7,2.7,6.2,6.5,6.2h5.8
				c-0.6-0.9-1-2.1-1-3.4V97.7z"/>
			<path d="M163.5,73.4c-0.9-0.3-1.8-0.5-2.8-0.7H71.8c-0.3,0.1-0.5,0.2-0.7,0.2c-8.3,1.4-14.4,8.5-14.4,17v48.8
				c0,9.4,7.7,17.1,17.1,17.1h84.8c9.4,0,17.1-7.7,17.1-17.1c0.1-16.3,0.1-32.6,0.1-48.9C175.8,82.2,170.8,75.6,163.5,73.4z
				 M74.6,84.2H158c1,0-0.5,0.3,0.5,0.5c0,0.2,0.3,0.5,0.4,0.6c-0.3,0.2-0.9,1.2-1.2,1.4c-3.9,2.6-5.3,4.2-9.2,6.8
				c-10.4,6.9-20.8,13.8-31.2,20.8c-0.6,0.5-1.1,0.6-1.8,0.1c-11.8-7.9-23.6-15.7-35.5-23.6c-2.6-1.7-5.1-3.4-7.7-5.1
				c-0.3-0.2-0.5-0.4-0.8-0.9C72.5,84.5,73.5,84.2,74.6,84.2z M57,135.8V91.2c0-0.2,0-0.5,0.1-0.9c2.9,1.9,5.6,3.7,8.4,5.5
				c0.9,0.6,1.8,1.2,2.8,1.9c0-0.3,0.1-0.4,0.1-0.9c2.7,1.7,5.1,3.4,7.6,5c0.3,0.2,0.5,0.3,0.8,0.5c10.7,7.1,21.3,14.2,32,21.3
				c1.5,0.2,3-0.4,4.8-1.6c9.9-6.6,19.9-13.2,29.8-19.8l0.1-2.1c5.5-3.7,11-7.3,16.4-10.9c0.4-0.3,0.9-0.5,1.4-0.9
				c0.2,0.4,0.3,0.8,0.3,1.2v2c0-0.4-0.1-0.8-0.1-1.3c-0.5,0.4-1,0.6-1.4,0.9c-5.6,3.7-11.1,7.4-16.7,11.1l-0.4,8.5
				c1.5-1,3.1-2.1,4.7-3.1c5-3.4,10.1-6.7,15.1-10c0.4-0.3,0.8-0.5,1.3-0.8c0,0.5,0.1,0.8,0.1,1.2v40c0,4-2.3,6.2-6.2,6.2H74
				c-2,0-3.7-0.9-4.7-2.3h-5.8C59.7,142,57,139.5,57,135.8z"/>
			<path d="M161.6,133.2v2c0,4.3-2.5,6.8-6.8,6.8H63.5c-3.8,0-6.5-2.5-6.5-6.2V91.2c0-0.2,0-0.5,0.1-0.9c2.9,1.9,5.6,3.7,8.4,5.5
				c0.9,0.6,1.8,1.2,2.8,1.9c2.8,1.8,5.5,3.7,8.3,5.5c9.5,6.3,19,12.7,28.5,18.9c1.3,0.9,2.5,1.4,3.7,1.6c1.5,0.2,3-0.4,4.8-1.6
				c9.9-6.6,19.9-13.2,29.8-19.8l-0.4,8.5l-1.2,29.2h13C159.1,140,161.6,137.5,161.6,133.2z"/>
			<path d="M158.1,77.4c-0.3,0.2-0.6,0.5-1,0.7c-15.6,10.4-31.2,20.8-46.8,31.2c-0.7,0.5-1.2,0.6-2,0.1C92.7,98.9,77,88.5,61.3,78
				c-0.3-0.2-0.6-0.4-0.9-1c1.2-0.2,2.3-0.4,3.5-0.4c17.5,0,35,0,52.5,0c12.8,0,25.5,0,38.3,0c1.1,0,2.3,0.2,3.4,0.4
				C158.1,77.1,158.1,77.2,158.1,77.4z"/>
		</g>
	</g>
	<g id="kSnGQK.tif_00000114765114459496484040000008954588423005916083_">
		<g>
			<path d="M159.5,68c0-8.2-5.5-15.4-13.4-17.8c-1-0.3-2.1-0.5-3.1-0.8c-32.2,0-64.4,0-96.7,0c-0.3,0.1-0.5,0.2-0.8,0.2
				c-9.1,1.6-15.7,9.2-15.7,18.5c0,17.7,0,35.5,0,53.2c0,10.2,8.4,18.6,18.6,18.6c30.8,0,61.6,0,92.4,0c10.2,0,18.6-8.4,18.6-18.6
				C159.6,103.6,159.6,85.8,159.5,68z M147,120.7c0,4.3-2.5,6.8-6.8,6.8c-30.5,0-60.9,0-91.4,0c-3.8,0-6.5-2.5-6.5-6.2
				c0-14.9,0-29.7,0-44.6c0-0.3,0-0.5,0.1-1c2.9,1.9,5.6,3.7,8.3,5.5c13.2,8.8,26.4,17.6,39.6,26.3c3.1,2.1,5.3,2.1,8.5,0
				c15.5-10.3,31-20.6,46.5-30.9c0.4-0.3,0.8-0.5,1.4-0.9c0,0.5,0.1,0.9,0.1,1.3C147,91.6,147,106.1,147,120.7z M49.3,62
				c17.5,0,35,0,52.5,0c12.8,0,25.5,0,38.3,0c1.1,0,2.3,0.2,3.4,0.4c0,0.2,0,0.3,0.1,0.4c-0.3,0.2-0.6,0.5-1,0.7
				C127,74,111.4,84.3,95.8,94.7c-0.7,0.5-1.2,0.6-2,0.1c-15.7-10.5-31.3-20.9-47-31.3c-0.3-0.2-0.6-0.4-0.9-1
				C47,62.3,48.2,62,49.3,62z"/>
			<path class="st0" d="M42.5,75.7c2.9,1.9,5.6,3.7,8.4,5.5c13.2,8.8,26.4,17.6,39.6,26.3c3.1,2.1,5.3,2.1,8.5,0
				c15.5-10.3,31-20.6,46.5-30.9c0.4-0.3,0.9-0.5,1.4-0.9c0,0.5,0.1,0.9,0.1,1.3c0,14.5,0,29.1,0,43.6c0,4.3-2.5,6.8-6.8,6.8
				c-30.4,0-60.9,0-91.3,0c-3.8,0-6.5-2.5-6.5-6.2c0-14.8,0-29.7,0-44.6C42.4,76.4,42.5,76.2,42.5,75.7z"/>
			<path class="st0" d="M149.8,59.7c-0.3,0.2-0.7,0.5-1.2,0.9C131.1,73,113.4,84.1,95.9,96.4c-0.7,0.6-1.4,0.7-2.2,0.1
				c-17.5-12.4-35.2-23.7-53-36c-0.2-0.1-1-0.6-1.7-1.1c-0.5-0.3-0.3-1.1,0.3-1.2c1.4-0.3,3.3-0.3,4.3-0.3c19.7,0,39.5,0,59.1,0
				c14.5,0,28.7,0,43.2,0c1.3,0,5,0.2,5,0.5C150.8,58.8,150,59.6,149.8,59.7z"/>
		</g>
	</g>
</g>
<g id="Layer_9">
</g>
<path d="M144.3,83.3l-0.1,1.3c0.3-0.2,0.5-0.3,0.8-0.5l0,0c4-2.7,8.1-5.4,12.1-8c0.1-0.1,0.3-0.2,0.4-0.3c0.2-0.1,0.4-0.3,0.6-0.4
	c0-0.1,0-0.3-0.1-0.4c-0.2,0-0.3,0-0.5-0.1c-1-0.1-1.9-0.3-2.9-0.3c-3.2,0-6.4,0-9.6,0l0,0c-0.1,0-0.2,0-0.3,0l0,0L144.3,83.3z"/>
<path d="M105.1,122.1c-9.5-6.3-19-12.6-28.5-18.9l0.2-0.8c10.7,7.1,21.3,14.2,32,21.3C107.6,123.5,106.4,123,105.1,122.1z"/>
<path d="M164.1,98v40c0,4-2.3,6.2-6.2,6.2H74c-2,0-3.7-0.9-4.7-2.3h85.5c4.3,0,6.8-2.5,6.8-6.8v-2c0,4.3-2.5,6.8-6.8,6.8h-13
	l1.2-29.2c1.5-1,3.1-2.1,4.7-3.1c5-3.4,10.1-6.7,15.1-10c0.4-0.3,0.8-0.5,1.3-0.8C164,97.3,164.1,97.7,164.1,98z"/>
<path d="M161.6,89.6v2c0-0.4-0.1-0.8-0.1-1.3c-0.5,0.4-1,0.6-1.4,0.9c-5.6,3.7-11.1,7.4-16.7,11.1l0.1-2.1c5.5-3.7,11-7.3,16.4-10.9
	c0.4-0.3,0.9-0.5,1.4-0.9C161.5,88.8,161.6,89.2,161.6,89.6z"/>
<path class="st0" d="M89.9,104.5c3.3,2.5,5.7,2.5,9.2,0l51.8-34.5c0.3,0.7,0.3,1.1,0.3,1.7c0,17.1,0,34.1,0,51.2c0,5.1-2.7,8-7.4,8
	c-32.9,0-65.8,0-98.8,0c-4.1,0-7-2.9-7-7.2c0-17.5,0-34.9,0-52.4c0-0.3,0-0.6,0.1-1.1L89.9,104.5z"/>
</svg>
