<?xml version="1.0" encoding="utf-8"?>
<!-- Generator: Adobe Illustrator 27.4.0, SVG Export Plug-In . SVG Version: 6.00 Build 0)  -->
<svg version="1.1" id="Layer_1" xmlns="http://www.w3.org/2000/svg" xmlns:xlink="http://www.w3.org/1999/xlink" x="0px" y="0px"
	 viewBox="0 0 200 200" style="enable-background:new 0 0 200 200;" xml:space="preserve">
<style type="text/css">
	.st0{fill:#FFFFFF;}
</style>
<g id="Layer_1_00000112623233727422348970000011771733379797364641_">
</g>
<g id="Layer_2_00000120548282977232596790000005439556555938013373_">
</g>
<g id="Layer_3">
</g>
<g id="Layer_5">
</g>
<g id="Layer_6">
</g>
<g id="Layer_7">
</g>
<g id="Layer_8">
</g>
<g>
	<g id="Layer_4">
		<g id="FDFrB9.tif_00000093165232913999261510000008913549040912936861_">
			<g>
				<path d="M157.3,107.8c-0.5,2.1-2.1,3.6-4.4,3.7c-1.6,0-3.2,0.1-4.8,0c-0.9,0-1.1,0.2-1.1,1.1c0,12.9,0,25.7,0,38.6
					c0,1.4-0.2,2.7-1.2,3.7c-0.9,1-2.1,1.5-3.5,1.5c-7.6,0-15.1,0-22.7,0l0,0H95.7c0,0-14.5,0-21.6,0c-3.2,0-5.2-1.7-5.2-5.2v-39.7
					c-2,0-4,0-5.8,0c-2.7-0.1-4.7-2.2-4.5-4.8c0.1-1.2,0.6-2.2,1.6-3.1c3.1-3,6.2-6.2,9.2-9.2C80.8,83,92.3,71.5,103.7,60
					c1-1,2.1-2,3.6-2.5h1.7c1.5,0.5,2.5,1.5,3.6,2.5c14.5,14.5,28.9,28.9,43.3,43.4C156.9,104.6,157.6,106.1,157.3,107.8z"/>
			</g>
		</g>
		<g id="FDFrB9.tif">
			<g>
				<path d="M94.2,43.6c1.5,0.5,2.6,1.5,3.7,2.5c14.8,14.9,29.7,29.7,44.6,44.6c1.4,1.4,2,2.8,1.6,4.6c-0.5,2.2-2.2,3.7-4.5,3.7
					c-1.7,0.1-3.2,0.1-5,0c-0.9,0-1.1,0.2-1.1,1.2c0,13.3,0,26.3,0,39.6c0,1.5-0.2,2.7-1.2,3.8c-1,1-2.1,1.5-3.6,1.5
					c-7.7,0-15.5,0-23.3,0c-2.9,0-4.8-2-4.8-5.1c0-8.6,0-16.9,0-25.3c0-0.5,0-0.8,0-1.4c-4.7,0-9.4,0-14.3,0c0,0.5,0,0.8,0,1.2
					c0,8.3,0,16.7,0,25c0,3.7-1.7,5.5-5.5,5.5c-7.4,0-14.8,0-22.2,0c-3.4,0-5.2-1.9-5.2-5.2c0-13.2,0-26.2,0-39.2c0-0.5,0-0.9,0-1.5
					c-2.1,0-4.1,0-6,0c-2.8-0.1-4.8-2.4-4.7-5.1c0.1-1.2,0.6-2.4,1.6-3.2c3.1-3.1,6.3-6.3,9.4-9.4c11.8-11.8,23.5-23.6,35.2-35.2
					c1.1-1.1,2.1-2.1,3.6-2.5C93.1,43.6,93.6,43.6,94.2,43.6z M124,135.6c0-0.6,0-1,0-1.5c0-13.2,0-26.2,0-39.4c0-2.6,1-4.1,3.5-5
					c0.1,0,0.2-0.1,0.2-0.1c-11.4-11.4-23-23-34.4-34.4C82,66.7,70.4,78.1,59,89.7c2.9,0.9,3.8,2.9,3.8,5.8c-0.1,12.9,0,25.8,0,38.7
					c0,0.5,0,0.9,0,1.4c4.7,0,9.4,0,14.3,0c0-0.5,0-0.9,0-1.2c0-8.4,0-16.8,0-25.2c0-3.4,1.9-5.2,5.2-5.2c7.6,0,14.9,0,22.5,0
					c3.6,0,5.3,1.7,5.3,5.3c0,8.4,0,16.8,0,25.1c0,0.5,0,0.8,0,1.2C114.6,135.6,119.3,135.6,124,135.6z"/>
				<path class="st0" d="M124,135.6c-4.8,0-9.4,0-14.3,0c0-0.5,0-0.9,0-1.2c0-8.4,0-16.8,0-25.1c0-3.6-1.7-5.3-5.3-5.3
					c-7.6,0-14.9,0-22.5,0c-3.4,0-5.2,1.9-5.2,5.2c0,8.4,0,16.8,0,25.2c0,0.5,0,0.8,0,1.2c-4.7,0-9.4,0-14.3,0c0-0.5,0-0.9,0-1.4
					c0-12.9,0-25.8,0-38.7c0-2.9-0.9-5.1-3.8-5.8c11.5-11.5,23-23,34.4-34.4c11.4,11.4,22.8,22.8,34.4,34.4c0,0-0.1,0.1-0.2,0.1
					c-2.4,0.9-3.5,2.4-3.5,5c0,13.2,0,26.2,0,39.4C124,134.6,124,135.1,124,135.6z"/>
			</g>
		</g>
	</g>
	<g id="Layer_9">
	</g>
</g>
</svg>
