<?xml version="1.0" encoding="utf-8"?>
<!-- Generator: Adobe Illustrator 27.4.0, SVG Export Plug-In . SVG Version: 6.00 Build 0)  -->
<svg version="1.1" id="Layer_1" xmlns="http://www.w3.org/2000/svg" xmlns:xlink="http://www.w3.org/1999/xlink" x="0px" y="0px"
	 viewBox="0 0 200 200" style="enable-background:new 0 0 200 200;" xml:space="preserve">
<style type="text/css">
	.st0{fill:#FFFFFF;}
</style>
<g id="Layer_1_00000157288785697988144380000015853393287563212214_">
</g>
<g id="Layer_2_00000019642390566059013990000007222540309518182274_">
</g>
<g id="Layer_3">
</g>
<g id="Layer_4">
	<g id="_x31_QsFQx.tif">
		<g>
			<path d="M139.3,49c0.7,0.2,1.4,0.3,2.2,0.5c5.8,1.4,9.8,6.4,9.9,12.4c0,2.6,0,5.3,0,8.1c1.5,0,2.8,0,4.2,0
				c6.7-0.1,11.8,5,11.8,11.7c0,20.4,0,40.8,0,61.3c0,6.2-4.5,11.2-10.7,11.8c-0.7,0.1-1.4,0.1-2.1,0.1c-29.2,0-58.3,0-87.5,0
				c-6.7,0-11.8-3.8-13.2-9.9c-0.3-1.4-0.4-2.9-0.5-4.5c-0.8,0-1.7,0-2.6,0c-3-0.1-6,0.2-8.9-0.3c-5.3-0.9-9-5.7-9.1-11.1
				c0-22.7,0-45.4,0-68.1c0-5.8,4.4-10.8,10.1-11.6c0.4-0.1,0.7-0.2,1.1-0.3C75.7,49,107.5,49,139.3,49z M92,58.8
				c-15.1,0-30.3,0-45.4,0c-3.3,0-4.3,1-4.3,4.3c0,21.7,0,43.4,0,65c0,3.4,1,4.4,4.5,4.4c30.2,0,60.4,0,90.5,0
				c3.3,0,4.4-1.1,4.4-4.3c0-21.7,0-43.5,0-65.2c0-3.2-1-4.2-4.2-4.2C122.3,58.8,107.2,58.8,92,58.8z"/>
			<path class="st0" d="M92,58.8c15.2,0,30.4,0,45.6,0c3.1,0,4.2,1,4.2,4.2c0,21.7,0,43.5,0,65.2c0,3.3-1.1,4.3-4.4,4.3
				c-30.2,0-60.4,0-90.5,0c-3.4,0-4.5-1-4.5-4.4c0-21.7,0-43.4,0-65c0-3.3,1-4.3,4.3-4.3C61.7,58.8,76.8,58.8,92,58.8z M102.1,104.1
				c-0.6-0.7-1.2-1.3-1.7-1.9C95.1,96,89.8,89.7,84.5,83.5c-2.5-2.9-5.8-2.8-8,0.2c-8.1,10.7-16.2,21.4-24.3,32.1
				c-1.4,1.8-1.8,3.8-0.8,5.9c1,2.1,2.8,2.8,5.1,2.8c24.3,0,48.7,0,73,0c2.2,0,4.1-0.7,5.2-2.7c1.1-2,0.6-3.9-0.6-5.8
				c-5-7.5-10-15-15-22.5c-2.2-3.3-5.7-3.5-8.2-0.3C108,96.8,105.1,100.4,102.1,104.1z"/>
			<path d="M102.1,104.1c3-3.7,5.9-7.3,8.8-10.9c2.5-3.1,6-3,8.2,0.3c5,7.5,10,15,15,22.5c1.2,1.8,1.8,3.8,0.6,5.8
				c-1.1,2-2.9,2.7-5.2,2.7c-24.3,0-48.7,0-73,0c-2.3,0-4.1-0.7-5.1-2.8c-1-2.1-0.7-4,0.8-5.9c8.1-10.7,16.2-21.4,24.3-32.1
				c2.3-3,5.6-3.1,8-0.2c5.3,6.2,10.6,12.4,15.9,18.6C100.9,102.8,101.5,103.4,102.1,104.1z"/>
		</g>
	</g>
</g>
<g id="Layer_5">
</g>
<g id="Layer_6">
</g>
<g id="Layer_7">
</g>
<g id="Layer_8">
</g>
<g id="Layer_9">
</g>
</svg>
